<?xml version="1.0" standalone="no"?>
<!DOCTYPE svg PUBLIC "-//W3C//DTD SVG 20010904//EN"
 "http://www.w3.org/TR/2001/REC-SVG-20010904/DTD/svg10.dtd">
<svg version="1.0" xmlns="http://www.w3.org/2000/svg"
 width="700.000000pt" height="700.000000pt" viewBox="0 0 700.000000 700.000000"
 preserveAspectRatio="xMidYMid meet">
<metadata>
Created by potrace 1.14, written by Peter Selinger 2001-2017
</metadata>
<g transform="translate(0.000000,700.000000) scale(0.100000,-0.100000)"
fill="#000000" stroke="none">
<path d="M3090 6824 c-223 -96 -412 -178 -420 -180 -8 -3 -33 -14 -55 -24 -22
-10 -132 -57 -245 -105 -113 -47 -223 -95 -245 -104 -32 -15 -333 -144 -555
-238 -19 -8 -53 -23 -75 -33 -22 -10 -85 -37 -140 -60 -55 -23 -118 -50 -140
-60 -22 -10 -69 -30 -105 -44 -36 -15 -83 -35 -105 -45 -22 -10 -116 -51 -210
-90 -93 -40 -188 -80 -210 -90 -22 -10 -69 -31 -105 -46 -36 -15 -78 -33 -95
-41 -16 -7 -109 -47 -205 -88 l-175 -75 0 -251 0 -251 175 -75 c96 -41 189
-81 205 -88 17 -8 107 -46 200 -86 94 -40 173 -75 177 -79 4 -3 -166 -80 -378
-170 l-384 -164 0 -251 0 -251 153 -64 c83 -35 170 -72 192 -82 22 -10 125
-55 230 -99 104 -45 191 -83 193 -84 2 -2 -48 -25 -110 -51 -62 -27 -120 -52
-128 -56 -8 -4 -131 -57 -272 -116 l-257 -108 -1 -251 0 -250 112 -49 c62 -26
136 -58 163 -70 28 -12 149 -64 270 -115 121 -52 223 -97 228 -100 4 -4 -86
-46 -200 -95 -194 -82 -272 -116 -350 -151 -17 -8 -34 -14 -37 -14 -3 0 -29
-11 -58 -24 -29 -14 -70 -32 -91 -40 l-37 -15 2 -251 3 -252 430 -184 c237
-102 450 -193 475 -203 48 -20 824 -353 875 -376 17 -7 264 -113 550 -235 286
-122 534 -228 550 -236 17 -7 162 -70 323 -139 l293 -125 59 25 c33 14 84 36
114 50 30 14 57 25 60 25 3 0 29 11 58 24 29 14 82 37 118 52 36 14 85 35 110
46 25 11 59 26 75 33 17 7 51 22 77 34 26 12 49 21 52 21 5 0 87 35 156 68 19
9 38 16 41 17 3 0 28 10 55 22 27 12 80 36 117 52 38 17 70 31 73 31 2 0 23 9
47 19 23 11 134 59 247 107 113 47 223 95 245 105 22 9 101 43 175 75 74 31
153 65 175 74 22 10 90 39 150 65 61 26 124 53 140 60 17 8 122 53 235 101
113 47 223 95 245 104 22 10 153 66 290 125 138 59 264 113 280 120 17 8 47
21 68 29 l37 15 -2 252 -3 252 -370 159 c-203 87 -378 162 -388 166 -22 9 -39
1 373 177 113 48 228 98 255 110 28 12 69 30 93 40 l42 18 0 251 -1 251 -352
150 c-193 82 -367 157 -385 165 l-33 16 385 165 386 164 0 251 0 251 -137 58
c-76 32 -156 66 -178 76 -22 10 -134 59 -250 108 -187 80 -207 91 -185 99 24
10 164 70 224 96 78 35 185 81 346 149 l175 75 0 252 0 252 -385 165 c-212 90
-398 170 -415 177 -16 8 -111 48 -210 91 -99 42 -204 88 -233 101 -29 13 -55
24 -58 24 -3 0 -26 9 -52 21 -26 12 -60 27 -77 35 -16 7 -284 122 -595 254
-311 133 -583 249 -605 259 -22 10 -85 37 -140 61 -55 23 -113 48 -130 55
-107 47 -595 255 -597 254 -2 0 -185 -79 -408 -175z"/>
</g>
</svg>
