<svg width="2488" height="800" viewBox="0 0 2488 800" fill="none" xmlns="http://www.w3.org/2000/svg">
<path d="M400 457.143L800 628.571L400 800L0 628.571L400 457.143Z" fill="#DB6060"/>
<rect y="571.429" width="85.7143" height="57.1429" fill="#DB6060"/>
<rect x="714.286" y="571.429" width="85.7143" height="57.1429" fill="#DB6060"/>
<path d="M400 400L800 571.429L400 742.857L0 571.429L400 400Z" fill="#F56C6C"/>
<path d="M400 323.143L800 494.571L400 666L0 494.571L400 323.143Z" fill="#CC8F34"/>
<rect y="437.429" width="85.7143" height="57.1429" fill="#CC8F34"/>
<rect x="714.286" y="437.429" width="85.7143" height="57.1429" fill="#CC8F34"/>
<path d="M400 266L800 437.429L400 608.857L0 437.429L400 266Z" fill="#E6A23C"/>
<path d="M400 190.143L800 361.571L400 533L0 361.571L400 190.143Z" fill="#5CAE34"/>
<rect y="304.429" width="85.7143" height="57.1429" fill="#5CAE34"/>
<rect x="714.286" y="304.429" width="85.7143" height="57.1429" fill="#5CAE34"/>
<path d="M400 133L800 304.429L400 475.857L0 304.429L400 133Z" fill="#67C23A"/>
<path d="M400 57.1429L800 228.571L400 400L0 228.571L400 57.1429Z" fill="#2A72BD"/>
<rect y="171.429" width="85.7143" height="57.1429" fill="#2A72BD"/>
<rect x="714.286" y="171.429" width="85.7143" height="57.1429" fill="#2A72BD"/>
<path d="M400 0L800 171.429L400 342.857L0 171.429L400 0Z" fill="#409EFF"/>
<path d="M932.8 128H1062.4C1106.13 128 1138.93 139.733 1160.8 163.2C1182.67 186.667 1193.6 221.067 1193.6 266.4V321.6C1193.6 366.933 1182.67 401.333 1160.8 424.8C1138.93 448.267 1106.13 460 1062.4 460H1020.8V688H932.8V128ZM1062.4 380C1076.8 380 1087.47 376 1094.4 368C1101.87 360 1105.6 346.4 1105.6 327.2V260.8C1105.6 241.6 1101.87 228 1094.4 220C1087.47 212 1076.8 208 1062.4 208H1020.8V380H1062.4ZM1241.39 128H1371.79C1417.13 128 1450.19 138.667 1470.99 160C1491.79 180.8 1502.19 213.067 1502.19 256.8V291.2C1502.19 349.333 1482.99 386.133 1444.59 401.6V403.2C1465.93 409.6 1480.86 422.667 1489.39 442.4C1498.46 462.133 1502.99 488.533 1502.99 521.6V620C1502.99 636 1503.53 649.067 1504.59 659.2C1505.66 668.8 1508.33 678.4 1512.59 688H1422.99C1419.79 678.933 1417.66 670.4 1416.59 662.4C1415.53 654.4 1414.99 640 1414.99 619.2V516.8C1414.99 491.2 1410.73 473.333 1402.19 463.2C1394.19 453.067 1380.06 448 1359.79 448H1329.39V688H1241.39V128ZM1361.39 368C1378.99 368 1392.06 363.467 1400.59 354.4C1409.66 345.333 1414.19 330.133 1414.19 308.8V265.6C1414.19 245.333 1410.46 230.667 1402.99 221.6C1396.06 212.533 1384.86 208 1369.39 208H1329.39V368H1361.39ZM1691.25 696C1648.05 696 1614.98 683.733 1592.05 659.2C1569.12 634.667 1557.65 600 1557.65 555.2V260.8C1557.65 216 1569.12 181.333 1592.05 156.8C1614.98 132.267 1648.05 120 1691.25 120C1734.45 120 1767.52 132.267 1790.45 156.8C1813.38 181.333 1824.85 216 1824.85 260.8V555.2C1824.85 600 1813.38 634.667 1790.45 659.2C1767.52 683.733 1734.45 696 1691.25 696ZM1691.25 616C1721.65 616 1736.85 597.6 1736.85 560.8V255.2C1736.85 218.4 1721.65 200 1691.25 200C1660.85 200 1645.65 218.4 1645.65 255.2V560.8C1645.65 597.6 1660.85 616 1691.25 616ZM1884.36 128H2018.76C2062.5 128 2095.3 139.733 2117.16 163.2C2139.03 186.667 2149.96 221.067 2149.96 266.4V549.6C2149.96 594.933 2139.03 629.333 2117.16 652.8C2095.3 676.267 2062.5 688 2018.76 688H1884.36V128ZM2017.16 608C2031.56 608 2042.5 603.733 2049.96 595.2C2057.96 586.667 2061.96 572.8 2061.96 553.6V262.4C2061.96 243.2 2057.96 229.333 2049.96 220.8C2042.5 212.267 2031.56 208 2017.16 208H1972.36V608H2017.16ZM2275.8 128H2395L2486.2 688H2398.2L2382.2 576.8V578.4H2282.2L2266.2 688H2184.6L2275.8 128ZM2371.8 502.4L2332.6 225.6H2331L2292.6 502.4H2371.8Z" fill="#303133"/>
</svg>
